<?xml version="1.0" encoding="utf-8"?>
<!-- Generator: Adobe Illustrator 27.5.0, SVG Export Plug-In . SVG Version: 6.00 Build 0)  -->
<svg version="1.1" id="Layer_1" xmlns="http://www.w3.org/2000/svg" xmlns:xlink="http://www.w3.org/1999/xlink" x="0px" y="0px"
	 viewBox="0 0 2214.161 2000" style="enable-background:new 0 0 2214.161 2000;" xml:space="preserve">
<rect x="0" y="0" style="fill:transparent;" width="2214.161" height="2000"/>
<g>
	<defs>
		<path id="SVGID_1_" d="M1987.201,1247.999c-8.305,47.462-20.837,95.029-37.789,142.418
			c-53.79,150.366-256.674,393.392-495.792,460.388c-109.392,30.65-350.267,41.626-466.636,30.711
			c-346.34-32.486-606.137-249.59-677.183-354.695c-124.117-183.618-137.71-446.742,23.162-567.315
			c41.72-31.266,64.725-61.512,76.814-90.82c19.074-46.231,10.981-90.14,6.275-132.082c-0.397-3.569-0.775-7.956-1.098-13.079
			c-5.758-93.224,8.388-430.716,265.942-546.522c265.831-119.52,502.04-51.921,735.794,68.222
			C1828.036,456.642,2057.205,848.419,1987.201,1247.999z"/>
	</defs>
	<use xlink:href="#SVGID_1_"  style="overflow:visible;fill:#DAF2F1;"/>
	<clipPath id="SVGID_00000016047747841500556420000010689210152728265874_">
		<use xlink:href="#SVGID_1_"  style="overflow:visible;"/>
	</clipPath>
	<g style="clip-path:url(#SVGID_00000016047747841500556420000010689210152728265874_);">
		<g>
			<path style="fill:#995A47;" d="M773.64,1185.511l3.558-62.845c-79.53-72.299-144.598-148.213-151.828-184.368
				c-7.231-36.144,18.078-43.375,18.078-43.375c-21.693-54.221,25.297-65.068,25.297-65.068
				c-21.682-68.683,43.386-79.53,43.386-79.53c-14.462-43.375-26.159-52.292,13.6-45.061c26.322,4.79,145.977,64.21,196.065,108.644
				c30.11,26.713,48.441,64.239,50.986,104.412l23.823,267.191l-10.09,746.057H603.094L773.64,1185.511z"/>
		</g>
		<g>
			<path style="fill:#995A47;" d="M1601.694,939.449c-7.231,36.155-72.299,112.069-151.828,184.368l3.12,55.05l0.311,5.492
				l0.311,5.492l180.024,741.717h-390.779l-12.682-741.717l0.484-5.492l0.495-5.492l23.132-259.396
				c2.545-40.174,20.876-77.699,50.986-104.412c50.087-44.434,179.293-109.272,205.614-114.062
				c39.759-7.231,18.513,7.105,4.051,50.48c0,0,65.068,10.846,43.386,79.53c0,0,46.99,10.847,25.297,65.068
				C1583.616,896.074,1608.925,903.305,1601.694,939.449z"/>
		</g>
		<g>
			<g>
				<path style="fill:#FF9E29;" d="M1080.935,1076.317c0,0,13.818,116.07-65.405,192.529
					c-79.223,76.459-123.44,72.774-130.809,102.252h232.742v-313.205L1080.935,1076.317z"/>
			</g>
			<g>
				<path style="fill:#F7AB48;" d="M1153.992,1076.317c0,0-13.818,116.07,65.405,192.529
					c79.222,76.459,123.44,72.774,130.809,102.252h-232.742v-313.205L1153.992,1076.317z"/>
			</g>
			<g>
				<g>
					<path style="fill:#F99247;" d="M955.93,1005.292c-98.858-20.527-181.824-90.776-239.927-203.152
						c-42.979-83.124-57.315-159.44-57.904-162.648c-1.222-6.656,0.575-13.512,4.906-18.712c4.332-5.2,10.75-8.207,17.518-8.207
						h160.901v45.599h-132.1c7.546,28.278,22.396,75.336,47.711,124.043c52.271,100.57,122.308,160.602,208.165,178.431
						L955.93,1005.292z"/>
				</g>
			</g>
			<g>
				<g>
					<path style="fill:#F99247;" d="M1278.997,1005.292l-9.27-44.646c85.856-17.828,155.893-77.861,208.165-178.431
						c25.315-48.707,40.164-95.761,47.711-124.043h-132.1v-45.599h160.901c6.768,0,13.186,3.007,17.517,8.207
						c4.332,5.2,6.129,12.055,4.906,18.712c-0.589,3.208-14.925,79.524-57.903,162.648
						C1460.821,914.516,1377.855,984.764,1278.997,1005.292z"/>
				</g>
			</g>
			<g>
				<path style="fill:#FF9E29;" d="M1117.464,536.498H817.474c0,0,21.47,549.03,299.989,567.454V536.498L1117.464,536.498z"/>
			</g>
			<g>
				<path style="fill:#F7AB48;" d="M1417.453,536.498h-299.989v567.454C1395.983,1085.529,1417.453,536.498,1417.453,536.498
					L1417.453,536.498z"/>
			</g>
			<g>
				<path style="fill:#FF9E29;" d="M1117.464,1098.438h-48.227c-6.611,0-11.97,5.359-11.97,11.969s5.359,11.969,11.97,11.969h48.227
					V1098.438z"/>
			</g>
			<g>
				<path style="fill:#F7AB48;" d="M1117.464,1098.438h48.227c6.611,0,11.969,5.359,11.969,11.969s-5.359,11.969-11.969,11.969
					h-48.227V1098.438z"/>
			</g>
			<g>
				<rect x="816.924" y="1371.098" style="fill:#223749;" width="601.08" height="42.989"/>
			</g>
			<g>
				<rect x="796.57" y="536.498" style="fill:#FF8D10;" width="641.788" height="46.06"/>
			</g>
			<g>
				<path d="M1438.357,583.254H795.874v-47.452h32.69c0.385,0,0.696,0.312,0.696,0.696s-0.312,0.696-0.696,0.696h-31.297v44.667
					h641.091c0.384,0,0.696,0.312,0.696,0.696C1439.054,582.942,1438.742,583.254,1438.357,583.254z"/>
			</g>
			<g>
				<rect x="828.504" y="1414.087" style="fill:#F7AB48;" width="577.919" height="237.053"/>
			</g>
			<g>
				<rect x="726.146" y="1704.57" style="fill:#223749;" width="782.635" height="41.454"/>
			</g>
			<g>
				<polygon style="fill:#FF9E29;" points="1430.988,1704.57 803.939,1704.57 828.504,1651.141 1406.423,1651.141 				"/>
			</g>
			<g style="opacity:0.6;">
				<polygon style="fill:#FDE79D;" points="1117.464,698.628 1153.304,771.248 1233.445,782.893 1175.454,839.42 1189.144,919.237 
					1117.464,881.552 1045.784,919.237 1059.473,839.42 1001.483,782.893 1081.624,771.248 				"/>
			</g>
			<g>
				<path style="fill:#FF8D10;" d="M1370.949,1335.479H862.16c-4.668,0-8.452,3.784-8.452,8.453v18.715
					c0,4.668,3.784,8.452,8.452,8.452h508.789c4.668,0,8.452-3.784,8.452-8.452v-18.715
					C1379.401,1339.263,1375.617,1335.479,1370.949,1335.479z"/>
			</g>
			<g style="opacity:0.6;">
				<path style="fill:#FDE79D;" d="M1340.292,1578.02v-75.235c-14.215,0-25.738-11.523-25.738-25.738l0,0H924.52l0,0
					c0,14.215-11.523,25.738-25.738,25.738v75.235c14.215,0,25.738,11.523,25.738,25.738h390.034
					C1314.554,1589.543,1326.078,1578.02,1340.292,1578.02z"/>
			</g>
			<g>
				<circle style="fill:#223749;" cx="1334.103" cy="1483.46" r="6.189"/>
			</g>
			<g>
				<path style="fill:#223749;" d="M1340.292,1597.569c0,3.418-2.771,6.189-6.189,6.189s-6.189-2.771-6.189-6.189
					s2.771-6.189,6.189-6.189S1340.292,1594.151,1340.292,1597.569z"/>
			</g>
			<g>
				<path style="fill:#223749;" d="M911.161,1483.46c0,3.418-2.771,6.189-6.189,6.189c-3.418,0-6.19-2.771-6.19-6.189
					c0-3.418,2.771-6.189,6.19-6.189C908.39,1477.271,911.161,1480.042,911.161,1483.46z"/>
			</g>
			<g>
				<path style="fill:#223749;" d="M911.161,1597.569c0,3.418-2.771,6.189-6.189,6.189c-3.418,0-6.19-2.771-6.19-6.189
					s2.771-6.189,6.19-6.189C908.39,1591.38,911.161,1594.151,911.161,1597.569z"/>
			</g>
			<g>
				<rect x="995.612" y="1510.419" style="fill:#FF8D10;" width="231.896" height="6.052"/>
			</g>
			<g>
				<rect x="970.304" y="1532.614" style="fill:#FF8D10;" width="282.512" height="6.052"/>
			</g>
			<g>
				<rect x="995.612" y="1554.809" style="fill:#FF8D10;" width="231.896" height="6.052"/>
			</g>
			<g>
				<path d="M869.445,1336.316c-0.384,0-0.696-0.312-0.696-0.696c0-0.384,0.312-0.696,0.696-0.696l491.892-0.141
					c0.384,0,0.696,0.312,0.696,0.696s-0.312,0.696-0.696,0.696L869.445,1336.316z"/>
			</g>
			<g>
				<path d="M1165.691,1099.134h-96.454c-0.384,0-0.696-0.312-0.696-0.696c0-0.384,0.312-0.696,0.696-0.696h96.454
					c0.384,0,0.696,0.312,0.696,0.696C1166.387,1098.822,1166.075,1099.134,1165.691,1099.134z"/>
			</g>
			<g>
				<path d="M1165.691,1123.073h-96.454c-0.384,0-0.696-0.312-0.696-0.696s0.312-0.696,0.696-0.696h96.454
					c0.384,0,0.696,0.312,0.696,0.696S1166.075,1123.073,1165.691,1123.073z"/>
			</g>
			<g>
				<path d="M999.473,1284.403c-0.236,0-0.466-0.12-0.597-0.336c-0.199-0.329-0.093-0.757,0.237-0.956
					c0.169-0.102,17.126-10.496,35.478-35.389c16.94-22.977,38.568-63.358,45.401-125.255c0.042-0.382,0.392-0.67,0.768-0.616
					c0.383,0.042,0.658,0.386,0.616,0.768c-6.871,62.248-28.652,102.876-45.713,125.996c-18.513,25.087-35.66,35.585-35.83,35.688
					C999.719,1284.371,999.595,1284.403,999.473,1284.403z"/>
			</g>
			<g>
				<path d="M1308.265,1336.316c-0.097,0-0.197-0.021-0.291-0.064c-0.299-0.138-30.5-14.334-81.796-60.025
					c-0.287-0.256-0.313-0.695-0.056-0.983c0.255-0.287,0.694-0.313,0.983-0.056c51.115,45.529,81.156,59.662,81.453,59.8
					c0.349,0.161,0.501,0.575,0.34,0.924C1308.78,1336.167,1308.529,1336.316,1308.265,1336.316z"/>
			</g>
			<g>
				<path d="M1212.791,1314.43c-0.174,0-0.347-0.064-0.482-0.194l-14.305-13.755c-0.277-0.267-0.286-0.708-0.02-0.985
					c0.267-0.278,0.707-0.286,0.985-0.02l14.305,13.755c0.277,0.267,0.287,0.708,0.02,0.985
					C1213.156,1314.358,1212.974,1314.43,1212.791,1314.43z"/>
			</g>
			<g>
				<path d="M1212.791,1324.874c-0.174,0-0.347-0.064-0.482-0.194l-14.305-13.755c-0.277-0.266-0.286-0.708-0.02-0.985
					c0.267-0.278,0.707-0.287,0.985-0.02l14.305,13.755c0.277,0.266,0.287,0.708,0.02,0.984
					C1213.156,1324.802,1212.974,1324.874,1212.791,1324.874z"/>
			</g>
			<g>
				<path d="M967.469,1025.817c-0.2,0-0.4-0.087-0.538-0.254c-30.3-36.844-56.831-83.063-78.856-137.375
					c-17.613-43.433-32.4-92.111-43.953-144.683c-19.666-89.502-23.165-160.211-23.198-160.915c-0.018-0.384,0.278-0.71,0.663-0.728
					c0.386-0.015,0.71,0.278,0.728,0.663c0.034,0.703,3.528,71.315,23.173,160.707c18.123,82.47,54.091,198.243,122.517,281.446
					c0.245,0.297,0.201,0.736-0.095,0.98C967.782,1025.765,967.625,1025.817,967.469,1025.817z"/>
			</g>
			<g>
				<path d="M1366.884,830.846c-0.079,0-0.16-0.013-0.239-0.042c-0.361-0.132-0.548-0.531-0.416-0.893
					c27.543-75.599,46.938-245.721,47.131-247.431c0.043-0.383,0.391-0.658,0.77-0.614c0.383,0.043,0.657,0.388,0.614,0.77
					c-0.193,1.711-19.607,171.999-47.206,247.752C1367.435,830.67,1367.168,830.846,1366.884,830.846z"/>
			</g>
			<g>
				<path d="M1547.214,658.869h-97.451c-0.384,0-0.696-0.312-0.696-0.696c0-0.384,0.312-0.696,0.696-0.696h97.451
					c0.384,0,0.696,0.312,0.696,0.696C1547.911,658.557,1547.599,658.869,1547.214,658.869z"/>
			</g>
			<g>
				<path d="M1441.493,842.467c-0.142,0-0.286-0.043-0.411-0.135c-0.31-0.227-0.377-0.663-0.151-0.973
					c0.586-0.798,58.781-81.012,83.995-183.353c0.094-0.374,0.471-0.601,0.843-0.51c0.374,0.092,0.601,0.469,0.51,0.842
					c-25.283,102.618-83.637,183.043-84.223,183.843C1441.919,842.368,1441.707,842.467,1441.493,842.467z"/>
			</g>
			<g>
				<path d="M765.091,658.869h-74.685c-0.384,0-0.696-0.312-0.696-0.696c0-0.384,0.312-0.696,0.696-0.696h74.685
					c0.384,0,0.696,0.312,0.696,0.696C765.787,658.557,765.476,658.869,765.091,658.869z"/>
			</g>
			<g>
				<path d="M770.865,807.864c-0.233,0-0.461-0.117-0.592-0.329c-0.414-0.666-41.672-67.545-61.624-149.198
					c-0.091-0.373,0.137-0.751,0.511-0.842c0.375-0.092,0.751,0.138,0.842,0.511c19.897,81.429,61.04,148.129,61.454,148.793
					c0.203,0.326,0.103,0.756-0.223,0.959C771.117,807.83,770.99,807.864,770.865,807.864z"/>
			</g>
			<g>
				<path d="M951.487,1005.029c-0.034,0-0.069-0.003-0.103-0.007c-0.586-0.088-59.289-9.284-120.251-57.48
					c-0.302-0.238-0.354-0.676-0.114-0.978c0.238-0.3,0.675-0.353,0.977-0.114c60.675,47.969,119.01,57.109,119.593,57.195
					c0.381,0.057,0.643,0.411,0.587,0.791C952.123,1004.78,951.826,1005.029,951.487,1005.029z"/>
			</g>
			<g>
				<path d="M1368.694,971.264c-0.247,0-0.485-0.131-0.612-0.362c-0.184-0.338-0.061-0.761,0.277-0.945
					c0.489-0.267,49.304-27.209,80.86-66.732c0.24-0.301,0.681-0.348,0.978-0.11c0.301,0.24,0.35,0.678,0.11,0.978
					c-31.733,39.746-80.788,66.817-81.28,67.085C1368.921,971.237,1368.807,971.264,1368.694,971.264z"/>
			</g>
			<g>
				<path d="M1358.86,675.409c-0.195,0-0.39-0.082-0.528-0.242l-32.251-37.416c-0.251-0.292-0.219-0.731,0.073-0.982
					c0.29-0.25,0.731-0.22,0.982,0.073l32.251,37.416c0.251,0.291,0.218,0.731-0.073,0.982
					C1359.183,675.354,1359.022,675.409,1358.86,675.409z"/>
			</g>
			<g>
				<path d="M1361.512,703.057c-0.195,0-0.39-0.082-0.528-0.242l-32.251-37.416c-0.251-0.291-0.219-0.731,0.073-0.982
					c0.29-0.25,0.73-0.22,0.982,0.073l32.251,37.416c0.251,0.292,0.219,0.731-0.073,0.982
					C1361.834,703.002,1361.673,703.057,1361.512,703.057z"/>
			</g>
			<g>
				<path d="M1045.784,919.933c-0.039,0-0.079-0.003-0.119-0.01c-0.379-0.065-0.634-0.425-0.568-0.804l13.69-79.817
					c0.065-0.379,0.423-0.634,0.804-0.568c0.379,0.065,0.634,0.425,0.568,0.804l-13.689,79.817
					C1046.412,919.694,1046.117,919.933,1045.784,919.933z"/>
			</g>
			<g>
				<path d="M1001.482,783.59c-0.34,0-0.637-0.249-0.688-0.596c-0.055-0.381,0.208-0.734,0.589-0.789l80.141-11.645
					c0.373-0.055,0.733,0.207,0.789,0.589c0.055,0.381-0.208,0.734-0.589,0.789l-80.141,11.646
					C1001.549,783.587,1001.515,783.59,1001.482,783.59z"/>
			</g>
			<g>
				<path d="M1153.305,771.944c-0.258,0-0.504-0.142-0.626-0.388l-35.84-72.62c-0.17-0.345-0.028-0.763,0.316-0.933
					c0.344-0.171,0.763-0.029,0.933,0.316l35.84,72.62c0.169,0.345,0.028,0.762-0.316,0.932
					C1153.513,771.921,1153.408,771.944,1153.305,771.944z"/>
			</g>
			<g>
				<path d="M1175.454,840.116c-0.181,0-0.362-0.07-0.499-0.21c-0.268-0.275-0.263-0.716,0.013-0.985l57.99-56.526
					c0.276-0.268,0.716-0.262,0.985,0.013c0.268,0.275,0.263,0.716-0.013,0.985l-57.99,56.526
					C1175.805,840.05,1175.629,840.116,1175.454,840.116z"/>
			</g>
			<g>
				<path d="M1189.143,919.933c-0.109,0-0.219-0.026-0.323-0.08l-71.68-37.684c-0.341-0.179-0.472-0.6-0.293-0.941
					c0.18-0.34,0.599-0.469,0.94-0.292l71.68,37.684c0.341,0.179,0.471,0.6,0.293,0.941
					C1189.635,919.798,1189.393,919.933,1189.143,919.933z"/>
			</g>
			<g>
				<path d="M1418.004,1414.783c-0.384,0-0.696-0.312-0.696-0.696v-42.292H817.62v42.292c0,0.384-0.312,0.696-0.696,0.696
					c-0.385,0-0.696-0.312-0.696-0.696v-43.685H1418.7v43.685C1418.7,1414.471,1418.388,1414.783,1418.004,1414.783z"/>
			</g>
			<g>
				<path d="M1340.293,1503.482c-0.021,0-0.043-0.001-0.064-0.003c-24.227-2.197-26.212-21.714-26.362-25.735H924.52
					c-0.384,0-0.696-0.312-0.696-0.696c0-0.384,0.312-0.696,0.696-0.696h390.754l-0.024,0.72
					c-0.031,0.926-0.454,22.703,25.104,25.021c0.384,0.034,0.665,0.374,0.631,0.756
					C1340.953,1503.21,1340.65,1503.482,1340.293,1503.482z"/>
			</g>
			<g>
				<path d="M1249.101,1604.454H924.52c-0.384,0-0.696-0.312-0.696-0.696c0-0.384,0.312-0.696,0.696-0.696h324.581
					c0.385,0,0.696,0.312,0.696,0.696C1249.798,1604.143,1249.486,1604.454,1249.101,1604.454z"/>
			</g>
			<g>
				<path d="M1430.988,1705.266c-0.263,0-0.515-0.151-0.633-0.405l-24.378-53.024H828.504c-0.384,0-0.696-0.312-0.696-0.696
					s0.312-0.696,0.696-0.696h578.365l0.187,0.405l24.565,53.429c0.16,0.35,0.007,0.763-0.342,0.924
					C1431.185,1705.246,1431.086,1705.266,1430.988,1705.266z"/>
			</g>
			<g>
				<path d="M1457.703,1705.266h-456.61c-0.384,0-0.696-0.312-0.696-0.696c0-0.385,0.312-0.696,0.696-0.696h456.61
					c0.384,0,0.696,0.312,0.696,0.696C1458.399,1704.954,1458.087,1705.266,1457.703,1705.266z"/>
			</g>
			<g>
				<path d="M837.026,1678.124c-0.227,0-0.45-0.111-0.583-0.315c-0.211-0.322-0.122-0.754,0.2-0.964l22.557-14.793
					c0.323-0.21,0.753-0.121,0.964,0.2c0.211,0.322,0.121,0.753-0.2,0.964l-22.557,14.793
					C837.289,1678.087,837.157,1678.124,837.026,1678.124z"/>
			</g>
			<g>
				<path d="M837.026,1690.357c-0.227,0-0.45-0.11-0.583-0.315c-0.211-0.322-0.122-0.753,0.2-0.964l22.557-14.793
					c0.323-0.21,0.753-0.121,0.964,0.2c0.211,0.322,0.121,0.753-0.2,0.964l-22.557,14.793
					C837.289,1690.319,837.157,1690.357,837.026,1690.357z"/>
			</g>
			<g>
				<path d="M1508.781,1705.266h-507.688c-0.384,0-0.696-0.312-0.696-0.696c0-0.385,0.312-0.696,0.696-0.696h507.688
					c0.385,0,0.696,0.312,0.696,0.696C1509.478,1704.954,1509.166,1705.266,1508.781,1705.266z"/>
			</g>
		</g>
		<g>
			<g>
				<g>
					<g>
						<g>
							<g>
								<path style="fill:#995A47;" d="M1644.79,789.724c-3.053,20.877-18.167,29.504-21.643,29.108l-107.822-12.339
									c-13.06-1.493-22.522-16.252-20.8-34.139c1.886-19.601,15.532-34.511,29.614-32.899l107.347,12.285
									C1631.487,751.742,1647.842,768.847,1644.79,789.724z"/>
							</g>
						</g>
					</g>
				</g>
			</g>
			<g>
				<g>
					<g>
						<g>
							<g>
								<path style="fill:#995A47;" d="M1636.897,849.746c-2.759,20.908-15.241,36.091-18.731,35.786l-116.636-10.254
									c-13.107-1.152-22.8-15.631-21.331-33.521c1.609-19.605,15.068-34.834,29.2-33.591l119.609,10.516
									C1629.008,818.685,1639.654,828.837,1636.897,849.746z"/>
							</g>
						</g>
					</g>
				</g>
			</g>
			<g>
				<g>
					<g>
						<g>
							<g>
								<path style="fill:#995A47;" d="M1617.035,914.849c-2.402,19.49-13.92,33.799-17.177,33.567l-108.867-7.816
									c-12.234-0.878-21.393-14.204-20.169-30.868c1.34-18.26,13.768-32.626,26.959-31.679l111.641,8.016
									C1609.423,886.07,1619.436,895.358,1617.035,914.849z"/>
							</g>
						</g>
					</g>
				</g>
			</g>
			<g>
				<g>
					<g>
						<g>
							<g>
								<g>
									<path style="fill:#8C3535;" d="M1631.645,825.479c2.167-0.387,4.078-2.734,4.506-5.755
										c0.494-3.479-1.173-6.524-3.724-6.805l-116.211-12.724c-10.92-1.25-18.411-13.423-17.033-27.721
										c0.74-7.658,3.678-14.69,8.281-19.793c4.604-5.103,10.196-7.574,15.766-6.932l106.255,12.16
										c2.54,0.252,5.02-2.301,5.518-5.77c0.503-3.475-1.155-6.528-3.705-6.82l-106.255-12.161
										c-8.015-0.917-16.426,2.782-23.067,10.144c-6.732,7.465-11.036,17.74-12.113,28.935
										c-2.016,20.931,8.769,38.746,24.554,40.551l116.225,12.729C1630.979,825.555,1631.315,825.538,1631.645,825.479z"/>
								</g>
							</g>
						</g>
					</g>
				</g>
			</g>
			<g>
				<g>
					<g>
						<g>
							<g>
								<path style="fill:#995A47;" d="M1647.846,716.279c-2.43,20.952-15.418,35.974-18.904,35.637l-116.338-11.337
									c-12.809-1.248-22.518-15.151-21.374-32.711c1.31-20.11,15.067-35.791,29.433-34.391l108.564,10.58
									C1641.301,685.235,1649.256,704.124,1647.846,716.279z"/>
							</g>
						</g>
					</g>
				</g>
			</g>
			<g>
				<g>
					<g>
						<g>
							<g>
								<g>
									<path style="fill:#8C3535;" d="M1629.098,757.591c2.165-0.422,4.058-2.798,4.458-5.821c0.463-3.483-1.234-6.496-3.79-6.734
										l-116.48-10.778c-10.946-1.067-18.558-13.098-17.308-27.397c0.671-7.659,3.548-14.729,8.111-19.901
										c4.563-5.172,10.14-7.732,15.724-7.184l106.506,10.38c2.546,0.209,5.005-2.381,5.472-5.852
										c0.472-3.479-1.216-6.499-3.772-6.749l-106.506-10.38c-8.034-0.782-16.422,3.05-23.005,10.512
										c-6.672,7.566-10.889,17.897-11.864,29.094c-1.828,20.934,9.134,38.544,24.957,40.084l116.494,10.781
										C1628.431,757.679,1628.767,757.656,1629.098,757.591z"/>
								</g>
							</g>
						</g>
					</g>
				</g>
			</g>
			<g>
				<g>
					<g>
						<g>
							<g>
								<g>
									<path style="fill:#8C3535;" d="M1614.978,887.963c2.221-0.397,4.159-2.853,4.53-5.943c0.415-3.484-1.324-6.449-3.886-6.628
										l-113.943-7.856c-11.035-0.966-17.975-11.569-16.807-25.78c0.625-7.662,3.469-14.744,8.007-19.952
										c4.537-5.215,10.095-7.82,15.7-7.332l119.607,10.517c2.55,0.244,4.999-2.414,5.447-5.898
										c0.452-3.479-1.251-6.486-3.81-6.71l-119.607-10.517c-8.049-0.721-16.419,3.197-22.975,10.722
										c-6.637,7.626-10.797,17.986-11.713,29.17c-1.714,20.852,8.625,36.994,24.578,38.394l114.008,7.862
										C1614.403,888.028,1614.693,888.014,1614.978,887.963z"/>
								</g>
							</g>
						</g>
					</g>
				</g>
			</g>
			<g>
				<g>
					<g>
						<g>
							<g>
								<g>
									<path style="fill:#8C3535;" d="M1599.597,950.237c2.216-0.396,4.154-2.846,4.525-5.93c0.425-3.48-1.311-6.457-3.872-6.638
										l-108.865-7.818c-10.078-0.72-17.215-11.54-16.258-24.633c0.517-7.017,3.067-13.538,7.187-18.371
										c4.116-4.832,9.206-7.3,14.335-6.928l111.64,8.015c2.529,0.193,4.975-2.489,5.398-5.975c0.425-3.48-1.31-6.457-3.872-6.638
										l-111.639-8.015c-7.599-0.55-15.465,3.254-21.586,10.425c-6.201,7.278-10.044,17.091-10.814,27.636
										c-1.453,19.732,9.128,36.027,24.082,37.096l108.865,7.818C1599.018,950.304,1599.307,950.289,1599.597,950.237z"/>
								</g>
							</g>
						</g>
					</g>
				</g>
			</g>
		</g>
		<g>
			<g>
				<g>
					<g>
						<g>
							<g>
								<path style="fill:#995A47;" d="M590.138,789.724c3.052,20.877,18.166,29.504,21.643,29.108l107.822-12.339
									c13.06-1.493,22.523-16.252,20.8-34.139c-1.886-19.601-15.532-34.511-29.614-32.899l-107.347,12.285
									C603.441,751.742,587.086,768.847,590.138,789.724z"/>
							</g>
						</g>
					</g>
				</g>
			</g>
			<g>
				<g>
					<g>
						<g>
							<g>
								<path style="fill:#995A47;" d="M598.031,849.746c2.759,20.908,15.241,36.091,18.731,35.786l116.636-10.254
									c13.107-1.152,22.8-15.631,21.331-33.521c-1.609-19.605-15.068-34.834-29.199-33.591l-119.609,10.516
									C605.92,818.685,595.274,828.837,598.031,849.746z"/>
							</g>
						</g>
					</g>
				</g>
			</g>
			<g>
				<g>
					<g>
						<g>
							<g>
								<path style="fill:#995A47;" d="M617.893,914.849c2.402,19.49,13.92,33.799,17.177,33.567l108.867-7.816
									c12.234-0.878,21.393-14.204,20.169-30.868c-1.34-18.26-13.768-32.626-26.959-31.679l-111.641,8.016
									C625.505,886.07,615.492,895.358,617.893,914.849z"/>
							</g>
						</g>
					</g>
				</g>
			</g>
			<g>
				<g>
					<g>
						<g>
							<g>
								<g>
									<path style="fill:#8C3535;" d="M603.283,825.479c-2.167-0.387-4.078-2.734-4.506-5.755
										c-0.494-3.479,1.174-6.524,3.724-6.805l116.211-12.724c10.92-1.25,18.411-13.423,17.033-27.721
										c-0.74-7.658-3.678-14.69-8.282-19.793c-4.604-5.103-10.196-7.574-15.766-6.932l-106.255,12.16
										c-2.54,0.252-5.019-2.301-5.518-5.77c-0.503-3.475,1.155-6.528,3.705-6.82l106.255-12.161
										c8.015-0.917,16.426,2.782,23.067,10.144c6.732,7.465,11.036,17.74,12.113,28.935c2.016,20.931-8.769,38.746-24.554,40.551
										l-116.225,12.729C603.949,825.555,603.613,825.538,603.283,825.479z"/>
								</g>
							</g>
						</g>
					</g>
				</g>
			</g>
			<g>
				<g>
					<g>
						<g>
							<g>
								<path style="fill:#995A47;" d="M587.081,716.279c2.43,20.952,15.418,35.974,18.904,35.637l116.338-11.337
									c12.809-1.248,22.518-15.151,21.374-32.711c-1.31-20.11-15.067-35.791-29.433-34.391L605.7,684.058
									C593.627,685.235,585.671,704.124,587.081,716.279z"/>
							</g>
						</g>
					</g>
				</g>
			</g>
			<g>
				<g>
					<g>
						<g>
							<g>
								<g>
									<path style="fill:#8C3535;" d="M605.83,757.591c-2.165-0.422-4.058-2.798-4.458-5.821c-0.463-3.483,1.234-6.496,3.79-6.734
										l116.48-10.778c10.946-1.067,18.559-13.098,17.309-27.397c-0.671-7.659-3.548-14.729-8.111-19.901
										c-4.563-5.172-10.14-7.732-15.724-7.184l-106.506,10.38c-2.546,0.209-5.005-2.381-5.472-5.852
										c-0.472-3.479,1.216-6.499,3.772-6.749l106.506-10.38c8.034-0.782,16.422,3.05,23.005,10.512
										c6.672,7.566,10.889,17.897,11.864,29.094c1.828,20.934-9.134,38.544-24.957,40.084l-116.494,10.781
										C606.497,757.679,606.161,757.656,605.83,757.591z"/>
								</g>
							</g>
						</g>
					</g>
				</g>
			</g>
			<g>
				<g>
					<g>
						<g>
							<g>
								<g>
									<path style="fill:#8C3535;" d="M619.95,887.963c-2.221-0.397-4.159-2.853-4.53-5.943c-0.415-3.484,1.324-6.449,3.886-6.628
										l113.943-7.856c11.035-0.966,17.975-11.569,16.807-25.78c-0.625-7.662-3.469-14.744-8.007-19.952
										c-4.538-5.215-10.095-7.82-15.7-7.332l-119.607,10.517c-2.55,0.244-4.999-2.414-5.447-5.898
										c-0.452-3.479,1.251-6.486,3.809-6.71l119.607-10.517c8.049-0.721,16.419,3.197,22.975,10.722
										c6.637,7.626,10.797,17.986,11.713,29.17c1.714,20.852-8.625,36.994-24.578,38.394l-114.008,7.862
										C620.525,888.028,620.234,888.014,619.95,887.963z"/>
								</g>
							</g>
						</g>
					</g>
				</g>
			</g>
			<g>
				<g>
					<g>
						<g>
							<g>
								<g>
									<path style="fill:#8C3535;" d="M635.331,950.237c-2.216-0.396-4.154-2.846-4.525-5.93c-0.425-3.48,1.311-6.457,3.872-6.638
										l108.865-7.818c10.078-0.72,17.215-11.54,16.258-24.633c-0.517-7.017-3.067-13.538-7.187-18.371
										c-4.116-4.832-9.206-7.3-14.335-6.928l-111.64,8.015c-2.529,0.193-4.975-2.489-5.398-5.975
										c-0.425-3.48,1.31-6.457,3.872-6.638l111.639-8.015c7.599-0.55,15.465,3.254,21.586,10.425
										c6.201,7.278,10.044,17.091,10.814,27.636c1.453,19.732-9.129,36.027-24.082,37.096l-108.865,7.818
										C635.91,950.304,635.62,950.289,635.331,950.237z"/>
								</g>
							</g>
						</g>
					</g>
				</g>
			</g>
		</g>
	</g>
</g>
</svg>
