<?xml version="1.0" encoding="utf-8"?>
<!-- Generator: Adobe Illustrator 27.5.0, SVG Export Plug-In . SVG Version: 6.00 Build 0)  -->
<svg version="1.1" xmlns="http://www.w3.org/2000/svg" xmlns:xlink="http://www.w3.org/1999/xlink" x="0px" y="0px"
	 viewBox="0 0 500 500" style="enable-background:new 0 0 500 500;" xml:space="preserve">
<g id="BACKGROUND">
	<rect style="fill: transparent;" width="500" height="500"/>
</g>
<g id="OBJECTS">
	<g>
		<g>
			<ellipse style="fill:#DEEEFF;" cx="127.918" cy="447.749" rx="43.968" ry="9.481"/>
			<ellipse style="fill:#DEEEFF;" cx="362.035" cy="447.749" rx="53.673" ry="9.481"/>
			<ellipse style="fill:#DEEEFF;" cx="358.716" cy="438.268" rx="75.652" ry="5.76"/>
		</g>
		<g>
			<path style="fill:#DEEEFF;" d="M148.812,153.667c0,0-77.103-16-101.103,26.667s5.333,79.718,16,112.192s-12,50.686-13.333,93.58
				s37.024,39.049,138.417,39.049s226.917-1.459,240.25-1.459c13.333,0,39.593-45.165-5.87-80.597s-20.771-56.417,14.883-80.258
				C473.709,239,509.302,134.333,423.172,83.667s-169.999,4-190.398,47.333S148.812,153.667,148.812,153.667z"/>
			<path style="fill:#00D2C5;" d="M101.974,298.795c0,0-12.933-45.793-67.433-58.544c3.5,82.749,61.365,129.347,67.433,133.548
				C108.042,378,101.974,298.795,101.974,298.795"/>
			<path style="fill:#6FEFE3;" d="M101.042,366.035c0,0-13-50.673-82.5-45.104c26,71.069,64.416,74.779,87.708,83.424
				C129.542,413,101.042,366.035,101.042,366.035z"/>
			<path style="fill:#00D2C5;" d="M402.914,189.298c0,0,20.422-42.978,76.288-46.418c-17.315,80.993-82.169,117.238-88.855,120.362
				S402.914,189.298,402.914,189.298"/>
			<path style="fill:#6FEFE3;" d="M392.567,255.744c0,0,21.306-47.779,88.891-30.644c-37.54,65.708-76.034,62.93-100.446,67.55
				S392.567,255.744,392.567,255.744z"/>
		</g>
		<g>
			<g>
				<g>
					<path style="fill:#27005D;" d="M402.119,116.202h-297.3c-9.373,0-16.972,7.599-16.972,16.972v269.378
						c0,9.373,7.599,16.972,16.972,16.972h297.3c9.373,0,16.972-7.599,16.972-16.972V133.173
						C419.091,123.8,411.492,116.202,402.119,116.202z M172.984,144.902c-5.138,0-9.302-4.165-9.302-9.302
						c0-5.138,4.165-9.302,9.302-9.302c5.138,0,9.302,4.165,9.302,9.302C182.286,140.738,178.121,144.902,172.984,144.902z
						 M333.954,144.902c-5.138,0-9.302-4.165-9.302-9.302c0-5.138,4.165-9.302,9.302-9.302c5.138,0,9.302,4.165,9.302,9.302
						C343.257,140.738,339.092,144.902,333.954,144.902z"/>
					<rect x="190.792" y="241.464" style="fill:#FF596A;" width="40.785" height="30.232"/>
					<g>
						<g>
							<path style="fill:#FFB252;" d="M402.119,116.202h-297.3c-9.373,0-16.972,7.599-16.972,16.972v25.48h331.243v-25.48
								C419.091,123.8,411.492,116.202,402.119,116.202z M172.984,144.902c-5.138,0-9.302-4.165-9.302-9.302
								c0-5.138,4.165-9.302,9.302-9.302c5.138,0,9.302,4.165,9.302,9.302C182.286,140.738,178.121,144.902,172.984,144.902z
								 M333.954,144.902c-5.138,0-9.302-4.165-9.302-9.302c0-5.138,4.165-9.302,9.302-9.302c5.138,0,9.302,4.165,9.302,9.302
								C343.257,140.738,339.092,144.902,333.954,144.902z"/>
						</g>
					</g>
				</g>
				<g>
					<g>
						<g>
							<g>
								<path style="fill:#DBDBDB;" d="M401.304,398.703H105.634V198.887h295.671V398.703z M106.866,397.471h293.206V200.119
									H106.866V397.471z"/>
							</g>
							<g>
								<rect x="106.25" y="240.251" style="fill:#DBDBDB;" width="294.438" height="1.213"/>
							</g>
							<g>
								<rect x="106.25" y="271.697" style="fill:#DBDBDB;" width="294.438" height="1.213"/>
							</g>
							<g>
								<rect x="106.25" y="303.143" style="fill:#DBDBDB;" width="294.438" height="1.213"/>
							</g>
							<g>
								<rect x="106.25" y="334.589" style="fill:#DBDBDB;" width="294.438" height="1.213"/>
							</g>
							<g>
								<rect x="106.25" y="366.035" style="fill:#DBDBDB;" width="294.438" height="1.213"/>
							</g>
							<g>
								<g>
									<rect x="147.615" y="199.503" style="fill:#DBDBDB;" width="1.197" height="198.584"/>
								</g>
								<g>
									<rect x="189.596" y="199.503" style="fill:#DBDBDB;" width="1.197" height="198.584"/>
								</g>
								<g>
									<rect x="231.577" y="199.503" style="fill:#DBDBDB;" width="1.197" height="198.584"/>
								</g>
								<g>
									<rect x="273.557" y="199.503" style="fill:#DBDBDB;" width="1.197" height="198.584"/>
								</g>
								<g>
									<rect x="315.538" y="199.503" style="fill:#DBDBDB;" width="1.197" height="198.584"/>
								</g>
								<g>
									<rect x="357.52" y="199.503" style="fill:#DBDBDB;" width="1.197" height="198.584"/>
								</g>
							</g>
						</g>
					</g>
					<g>
						<g>
							
								<text transform="matrix(1 0 0 1 122.306 260.9787)" style="fill:#FF596A; font-family:'Montserrat-Regular'; font-size:12.1334px;">31</text>
							
								<text transform="matrix(1 0 0 1 163.3705 260.9787)" style="fill:#BABABA; font-family:'Montserrat-Regular'; font-size:12.1334px;">01</text>
							
								<text transform="matrix(1 0 0 1 203.9754 260.9787)" style="fill:#FFFFFF; font-family:'Montserrat-Regular'; font-size:12.1334px;">02</text>
							
								<text transform="matrix(1 0 0 1 245.8612 260.9787)" style="fill:#BABABA; font-family:'Montserrat-Regular'; font-size:12.1334px;">03</text>
							
								<text transform="matrix(1 0 0 1 287.1327 260.9787)" style="fill:#BABABA; font-family:'Montserrat-Regular'; font-size:12.1334px;">04</text>
							
								<text transform="matrix(1 0 0 1 329.5692 260.9787)" style="fill:#BABABA; font-family:'Montserrat-Regular'; font-size:12.1334px;">05</text>
							
								<text transform="matrix(1 0 0 1 371.1688 260.9787)" style="fill:#BABABA; font-family:'Montserrat-Regular'; font-size:12.1334px;">06</text>
						</g>
						<g>
							
								<text transform="matrix(1 0 0 1 120.3285 292.5256)" style="fill:#FF596A; font-family:'Montserrat-Regular'; font-size:12.1334px;">07</text>
							
								<text transform="matrix(1 0 0 1 161.6898 292.5256)" style="fill:#BABABA; font-family:'Montserrat-Regular'; font-size:12.1334px;">08</text>
							
								<text transform="matrix(1 0 0 1 203.7269 292.5256)" style="fill:#BABABA; font-family:'Montserrat-Regular'; font-size:12.1334px;">09</text>
							
								<text transform="matrix(1 0 0 1 247.0926 292.5256)" style="fill:#BABABA; font-family:'Montserrat-Regular'; font-size:12.1334px;">10</text>
							
								<text transform="matrix(1 0 0 1 290.7791 292.5256)" style="fill:#BABABA; font-family:'Montserrat-Regular'; font-size:12.1334px;">11</text>
							
								<text transform="matrix(1 0 0 1 331.3836 292.5256)" style="fill:#BABABA; font-family:'Montserrat-Regular'; font-size:12.1334px;">12</text>
							
								<text transform="matrix(1 0 0 1 373.2684 292.5256)" style="fill:#BABABA; font-family:'Montserrat-Regular'; font-size:12.1334px;">13</text>
						</g>
						<g>
							
								<text transform="matrix(1 0 0 1 121.7176 323.6682)" style="fill:#FF596A; font-family:'Montserrat-Regular'; font-size:12.1334px;">14</text>
							
								<text transform="matrix(1 0 0 1 163.953 323.6682)" style="fill:#BABABA; font-family:'Montserrat-Regular'; font-size:12.1334px;">15</text>
							
								<text transform="matrix(1 0 0 1 205.5526 323.6682)" style="fill:#BABABA; font-family:'Montserrat-Regular'; font-size:12.1334px;">16</text>
							
								<text transform="matrix(1 0 0 1 247.5355 323.6682)" style="fill:#BABABA; font-family:'Montserrat-Regular'; font-size:12.1334px;">17</text>
							
								<text transform="matrix(1 0 0 1 289.0985 323.6682)" style="fill:#BABABA; font-family:'Montserrat-Regular'; font-size:12.1334px;">18</text>
							
								<text transform="matrix(1 0 0 1 331.1346 323.6682)" style="fill:#BABABA; font-family:'Montserrat-Regular'; font-size:12.1334px;">19</text>
							
								<text transform="matrix(1 0 0 1 371.4178 323.6682)" style="fill:#BABABA; font-family:'Montserrat-Regular'; font-size:12.1334px;">20</text>
						</g>
						<g>
							
								<text transform="matrix(1 0 0 1 122.2821 355.216)" style="fill:#FF596A; font-family:'Montserrat-Regular'; font-size:12.1334px;">21</text>
							
								<text transform="matrix(1 0 0 1 162.6849 355.216)" style="fill:#BABABA; font-family:'Montserrat-Regular'; font-size:12.1334px;">22</text>
							
								<text transform="matrix(1 0 0 1 204.5697 355.216)" style="fill:#BABABA; font-family:'Montserrat-Regular'; font-size:12.1334px;">23</text>
							
								<text transform="matrix(1 0 0 1 245.8426 355.216)" style="fill:#BABABA; font-family:'Montserrat-Regular'; font-size:12.1334px;">24</text>
							
								<text transform="matrix(1 0 0 1 288.2791 355.216)" style="fill:#BABABA; font-family:'Montserrat-Regular'; font-size:12.1334px;">25</text>
							
								<text transform="matrix(1 0 0 1 329.8788 355.216)" style="fill:#BABABA; font-family:'Montserrat-Regular'; font-size:12.1334px;">26</text>
							
								<text transform="matrix(1 0 0 1 371.8602 355.216)" style="fill:#BABABA; font-family:'Montserrat-Regular'; font-size:12.1334px;">27</text>
						</g>
						<g>
							
								<text transform="matrix(1 0 0 1 120.6014 386.1057)" style="fill:#FF596A; font-family:'Montserrat-Regular'; font-size:12.1334px;">28</text>
							
								<text transform="matrix(1 0 0 1 162.4359 386.1057)" style="fill:#BABABA; font-family:'Montserrat-Regular'; font-size:12.1334px;">29</text>
							
								<text transform="matrix(1 0 0 1 203.9999 386.1057)" style="fill:#BABABA; font-family:'Montserrat-Regular'; font-size:12.1334px;">30</text>
							
								<text transform="matrix(1 0 0 1 247.6869 386.1057)" style="fill:#BABABA; font-family:'Montserrat-Regular'; font-size:12.1334px;">31</text>
							<g>
								
									<text transform="matrix(1 0 0 1 288.953 386.1057)" style="fill:#F23B66; font-family:'Montserrat-Regular'; font-size:12.1334px;">01</text>
							</g>
							<g>
								
									<text transform="matrix(1 0 0 1 329.5575 386.1057)" style="fill:#F23B66; font-family:'Montserrat-Regular'; font-size:12.1334px;">02</text>
							</g>
							<g>
								
									<text transform="matrix(1 0 0 1 371.4422 386.1057)" style="fill:#F23B66; font-family:'Montserrat-Regular'; font-size:12.1334px;">03</text>
							</g>
						</g>
						<g>
							
								<text transform="matrix(1 0 0 1 119.1756 226.1965)" style="fill:#FF596A; font-family:'Montserrat-SemiBold'; font-size:13.3468px;">Su</text>
							
								<text transform="matrix(1 0 0 1 105.7084 187.7165)" style="fill:#FFB252; font-family:'Montserrat-SemiBold'; font-size:20.2341px;">JUNE</text>
							
								<text transform="matrix(1 0 0 1 158.8993 226.1965)" style="fill:#5295BD; font-family:'Montserrat-SemiBold'; font-size:13.3468px;">Mo</text>
							
								<text transform="matrix(1 0 0 1 202.8754 226.1965)" style="fill:#5295BD; font-family:'Montserrat-SemiBold'; font-size:13.3468px;">Tu</text>
							
								<text transform="matrix(1 0 0 1 241.5135 226.1965)" style="fill:#5295BD; font-family:'Montserrat-SemiBold'; font-size:13.3468px;">We</text>
							
								<text transform="matrix(1 0 0 1 286.5702 226.1965)" style="fill:#5295BD; font-family:'Montserrat-SemiBold'; font-size:13.3468px;">Th</text>
							
								<text transform="matrix(1 0 0 1 329.9657 226.1965)" style="fill:#5295BD; font-family:'Montserrat-SemiBold'; font-size:13.3468px;">Fr</text>
							
								<text transform="matrix(1 0 0 1 370.6317 226.1965)" style="fill:#5295BD; font-family:'Montserrat-SemiBold'; font-size:13.3468px;">Sa</text>
						</g>
					</g>
				</g>
				<g>
					<g>
						<path style="fill:#00D2C5;" d="M173.186,142.88L173.186,142.88c-3.504,0-6.37-2.867-6.37-6.37v-34.884
							c0-3.504,2.867-6.37,6.37-6.37h0c3.504,0,6.37,2.867,6.37,6.37v34.884C179.556,140.014,176.69,142.88,173.186,142.88z"/>
						<path style="fill:#00D2C5;" d="M334.157,142.88L334.157,142.88c-3.504,0-6.37-2.867-6.37-6.37v-34.884
							c0-3.504,2.867-6.37,6.37-6.37l0,0c3.504,0,6.37,2.867,6.37,6.37v34.884C340.527,140.014,337.66,142.88,334.157,142.88z"/>
					</g>
				</g>
			</g>
			<g>
				<g>
					<path style="fill:#FFBEAC;" d="M131.664,273.042c0,0,0.211,7.035,0.246,8.02c-1.618,2.216-4.502,3.412-4.502,3.412
						s-4.819-2.286-6.824-6.12c0.07-3.693,0.352-10.201,0-11.608C123.926,269.771,131.664,273.042,131.664,273.042z"/>
					<g>
						<path style="fill:#FFBEAC;" d="M132.294,255.932c0,0,5.983,8.783,4.734,17.191c-0.949,2.063-9.843,4.791-14.416-0.955
							c-2.443,1.073-3.647-3.509-3.807-4.773c-0.161-1.264,2.202-0.869,2.888,0.171c-1.166-5.026-2.604-8.78-1.026-9.836
							C122.244,256.672,131.272,254.237,132.294,255.932z"/>
						<path style="fill:#323759;" d="M131.43,248.188c-1.227,1.013-4.028,2.697-4.365,2.802c0.962-0.811,1.044-2.568,0.339-2.591
							c-0.705-0.023-1.69,1.291-3.811,2.399c-2.12,1.109-10.762-0.059-9.834,4.529c-1.992,0.69-3.712,3.164-2.195,6.95
							c0,0.004-0.001,0.008-0.001,0.012c0.272,2.833,4.957,10.848,6.868,12.114c2.836,1.879,5.843-0.444,6.765-1.059
							c0.923-0.615,1.522-1.946,0.702-4.149c-0.82-2.203-1.333-5.331,0-5.382c1.333-0.051,2.46,2.614,2.46,2.614s0,0,0.841-0.308
							c-0.491-1.128-0.534-2.614-0.072-4.715c0.461-2.101,0.321-4.254,0.321-4.254c-0.064-0.031-0.141-0.056-0.214-0.082
							c1.5-0.69,2.826-1.649,3.477-2.98C134.746,249.93,132.657,247.174,131.43,248.188z"/>
					</g>
				</g>
				<g>
					<g>
						<path style="fill:#323759;" d="M118.291,419.994c0,0-4.184,2.179-5.665,2.789c-1.482,0.61,0.174,7.757,1.133,8.106
							s1.849,1.656,1.404,3.312c-0.445,1.656,0.956,11.583,4.703,14.329s3.672-0.223,3.28-3.622
							c-0.392-3.399-1.761-14.76,0.723-17.897C126.353,423.872,118.291,419.994,118.291,419.994z"/>
						<path style="fill:#323759;" d="M126.658,441.347c0,0-1.132,6.869-0.522,8.438c0.61,1.569,6.529,1.166,8.24,0.801
							c1.114-0.237,1.19-1.391,1.19-1.391v-1.395c0,0,3.947,1.292,7.825-1.611c2.179-2.402,1.503-6.784-2.598-5.298
							c-2.089,0.757-4.191,2.808-6.418-0.068C132.846,439.953,126.658,441.347,126.658,441.347z"/>
						<path style="fill:#3E466D;" d="M148.534,343.644c0,0,3.486,39.569,2.963,45.496c-0.523,5.927-15.041,29.171-28.169,40.401
							c-3.312-4.009-6.128-8.986-6.128-8.986s15.819-24.269,18.957-27.929c3.138-3.661-6.45-33.817-8.89-42.358
							S148.534,343.644,148.534,343.644z"/>
						<path style="fill:#3E466D;" d="M112.626,349.047c0,0,2.876,24.917,4.576,37.647c1.7,12.73,7.713,52.735,7.713,55.088
							c4.445,2.092,11.766,0,11.766,0s-4.264-40.339-4.526-47.515c-0.261-7.176,2.221-38.057,2.221-38.057l-1.356-10.388
							L112.626,349.047z"/>
						<path style="fill:#5295BD;" d="M105.653,286.294c0,0-7.997,26.447-8.543,31.504c-0.547,5.057,14.214,30.274,14.214,30.274
							l6.97-8.145l-10.6-21.377l4.931-13.326L105.653,286.294z"/>
						<path style="fill:#F2F2F2;" d="M118.796,279.051c0,0,0.472-2.754,0.779-3.102c0.308-0.349,4.219-2.553,12.335-0.339
							c1.196,0.42,1.811,3.441,1.811,3.441H118.796z"/>
						<path style="fill:#5295BD;" d="M105.653,286.294c0,0,10.633-6.101,13.117-7.931c2.484-1.83,11.548-1.675,13.926-1.02
							c2.982,0.821,16.143,2.197,16.666,2.197c1.961,7.19,1.307,15.427,0,19.087s-4.14,22.879-3.268,27.237
							c0.872,4.358,5.927,17.257,6.45,18.129c-6.973,9.239-28.239,10.285-42.707,8.018c0.697-14.642,3.486-20.918,3.835-28.762
							c0.349-7.844-2.215-12.446-3.683-15.225C104.558,297.741,105.653,286.294,105.653,286.294z"/>
					</g>
					<path style="fill:#FFBEAC;" d="M188.792,265.826c0,0,3.444-1.964,3.709-3.2c0.266-1.236,1.49-4.382,2.032-5.098
						c0.542-0.716,1.939-2.247,3.092-3.016c0.422-0.282,1.291,1.075-0.299,2.616c-0.973,0.944-0.736,1.435-0.627,1.428
						c0.109-0.007,4.819-5.11,7.412-6.4c0.42-0.28,1.692,0.351,0.425,1.584c-1.508,1.468-3.555,3.508-3.555,3.508
						c1.091,0.302,1.593,1.356,1.348,1.737c1.122,0.347,1.22,1.219,0.981,1.697c0.895,0.287,0.87,1.515,0.487,2.157
						c-0.347,0.582-1.295,2.602-5.825,3.581c-2.29,0.018-5.317,2.992-5.317,2.992L188.792,265.826z"/>
					<polygon style="fill:#F2F2F2;" points="190.737,263.664 192.415,262.134 196.459,267.537 194.453,268.796 					"/>
					<path style="fill:#5295BD;" d="M149.291,279.552c0,0,19.698-1.433,22.559-2.636s19.206-14.076,19.206-14.076
						s4.038,5.045,4.235,5.787c-7.468,9.804-17.189,16.948-20.16,18.173c-2.971,1.225-26.898,10.02-28.923,10.129
						C147.616,292.316,149.357,286.88,149.291,279.552z"/>
				</g>
			</g>
			<g>
				<g>
					<g>
						<g>
							<g>
								<g>
									<circle style="fill:#FFB252;" cx="348.099" cy="337.399" r="103.856"/>
									<circle style="fill:#E6FFFF;" cx="348.099" cy="337.399" r="89.956"/>
									<path style="opacity:0.57;fill:#FFFAFF;" d="M380.277,340.901c12.546-18.959,13.877-53.126,7.571-71.324
										c-11.493-6.75-24.846-10.685-39.132-10.797c-43.42-0.341-78.895,34.581-79.236,78.002
										c-0.099,12.556,2.767,24.44,7.919,35.01c0.611,0.087,1.259,0.031,1.83,0.269
										C307.945,384.031,356.687,376.549,380.277,340.901z"/>
								</g>
							</g>
							<g>
								<g>
									<g>
										<g>
											<g>
												<path style="fill:#6FEFE3;" d="M348.575,276.764L348.575,276.764c1.512,0.012,2.759-1.216,2.771-2.728l0.132-16.837
													c0.012-1.512-1.216-2.759-2.728-2.771h0c-1.512-0.012-2.759,1.216-2.771,2.728l-0.132,16.837
													C345.835,275.505,347.063,276.752,348.575,276.764z"/>
												<path style="fill:#6FEFE3;" d="M347.447,420.371L347.447,420.371c1.512,0.012,2.759-1.216,2.771-2.728l0.132-16.837
													c0.012-1.512-1.216-2.759-2.728-2.771l0,0c-1.512-0.012-2.759,1.216-2.771,2.728l-0.132,16.837
													C344.707,419.112,345.935,420.359,347.447,420.371z"/>
											</g>
										</g>
										<g>
											<g>
												<path style="fill:#6FEFE3;" d="M408.734,337.875L408.734,337.875c-0.012,1.512,1.216,2.759,2.728,2.771l16.837,0.132
													c1.512,0.012,2.759-1.216,2.771-2.728l0,0c0.012-1.512-1.216-2.759-2.728-2.771l-16.837-0.132
													C409.993,335.136,408.746,336.363,408.734,337.875z"/>
												<path style="fill:#6FEFE3;" d="M265.127,336.747L265.127,336.747c-0.012,1.512,1.216,2.759,2.728,2.771l16.837,0.132
													c1.512,0.012,2.759-1.216,2.771-2.728l0,0c0.012-1.512-1.216-2.759-2.728-2.771l-16.837-0.132
													C266.386,334.008,265.139,335.235,265.127,336.747z"/>
											</g>
										</g>
									</g>
									<g>
										<circle style="fill:#6FEFE3;" cx="385.503" cy="273.773" r="2.749"/>
										<circle style="fill:#6FEFE3;" cx="310.695" cy="401.025" r="2.749"/>
									</g>
									<g>
										<circle style="fill:#6FEFE3;" cx="412.305" cy="300.999" r="2.749"/>
										<circle style="fill:#6FEFE3;" cx="283.893" cy="373.799" r="2.749"/>
									</g>
									<g>
										<circle style="fill:#6FEFE3;" cx="411.725" cy="374.803" r="2.749"/>
										<circle style="fill:#6FEFE3;" cx="284.472" cy="299.995" r="2.749"/>
									</g>
									<g>
										<circle style="fill:#6FEFE3;" cx="384.499" cy="401.605" r="2.749"/>
										<circle style="fill:#6FEFE3;" cx="311.699" cy="273.193" r="2.749"/>
									</g>
								</g>
							</g>
						</g>
						<g>
							<path style="fill:#FFB252;" d="M376.012,316.725c8.223-3.208,46.598-19.716,46.598-19.716l0.141,0.262l0.28,0.52l0.141,0.262
								c0,0-34.927,22.92-42.136,28.012s-32.771,13.057-32.771,13.057l-0.466-0.866l-0.28-0.52l-0.466-0.866
								C347.054,336.871,367.789,319.933,376.012,316.725z"/>
							<path style="fill:#FFB252;" d="M322.006,342.98c-6.293-0.976-36.164-4.168-36.164-4.168l-0.004-0.298l-0.009-0.59
								l-0.004-0.298c0,0,29.762-4.087,36.023-5.251c6.261-1.164,25.169,3.647,25.169,3.647l0.015,0.984l0.009,0.59l0.015,0.984
								C347.054,338.579,328.299,343.956,322.006,342.98z"/>
							<circle style="fill:#6FEFE3;" cx="348.099" cy="337.399" r="5.499"/>
						</g>
					</g>
				</g>
				<g>
					<g>
						<path style="fill:#323759;" d="M376.506,398.467c0,0-21.453-25.593-32.449-22.188s6.473,57.113,6.473,57.113l10.558-0.872
							l-3.279-24.735c0,0,3.471,20.356,20.819,18.164s20.31-11.667,19.489-18.506C397.296,400.603,376.506,398.467,376.506,398.467z
							"/>
						<path style="fill:#3E466D;" d="M398.117,407.443c-0.822-6.839-21.611-8.976-21.611-8.976s-0.076-0.091-0.204-0.24
							l-12.725,22.007c3.164,3.723,7.941,6.614,15.052,5.715C395.978,423.756,398.939,414.282,398.117,407.443z"/>
						<g>
							<path style="fill:#323759;" d="M389.082,427.089c0,0,8.348-1.453,10.848-1.919c0.299-0.056,0.612,0.055,0.79,0.302
								c2.299,3.195,1.726,8.047,1.726,8.047l-1.428,0.476c0,0,2.146,6.403,1.207,10.963c-0.426,2.071-2.716,6.186-10.259,5.629
								c-1.308-1.807,0.241-3.236,1.861-5.126c2.414-2.816,1.76-9.689-2.397-9.555C389.015,433.894,389.082,427.089,389.082,427.089
								z"/>
							<path style="fill:#4A5083;" d="M399.932,425.169c-0.486,0.091-1.194,0.219-2.019,0.366c-0.21,0.265-0.347,0.612-0.366,1.067
								c-0.101,2.414,0.704,5.984,1.307,8.046c0.603,2.062,0.402,10.058-1.056,12.622c-1.458,2.565-4.476,2.431-6.06,2.951
								c0.064,0.12,0.137,0.241,0.226,0.365c7.543,0.557,9.832-3.557,10.259-5.629c0.939-4.56-1.207-10.963-1.207-10.963
								l1.428-0.476c0,0,0.574-4.853-1.726-8.047C400.542,425.224,400.231,425.113,399.932,425.169z"/>
							<path style="fill:#656D99;" d="M399.449,425.258c-0.234,0.251-0.41,0.592-0.41,1.093c0,1.643,1.073,6.504,1.542,6.873
								c0.369,0.29,1.052,0.39,1.865,0.291c0.005-0.047,0.562-4.864-1.726-8.043c-0.178-0.247-0.489-0.358-0.788-0.302
								C399.789,425.196,399.627,425.226,399.449,425.258z"/>
							<path style="fill:#656D99;" d="M401.082,433.973c-0.592-0.123-1.624-0.33-1.624-0.33s0.788,3.034,0.654,6.923
								c-0.134,3.889-1.115,7.196-2.489,8.302c-1.053,0.847-2.229,1.43-3.599,1.742c5.902-0.266,7.816-3.785,8.201-5.652
								c0.939-4.56-1.207-10.963-1.207-10.963L401.082,433.973z"/>
							<g>
								<path style="fill:#3E466D;" d="M361.859,401.81c0,0-24.337,26.016-29.334,35.135c-4.997,9.119,4.56,17.433,14.667,10.996
									c10.107-6.437,14.777-18.305,26.233-20.048c6.576-1.001,18.439-1.006,19.277-22.167
									C393.361,389.111,361.859,401.81,361.859,401.81z"/>
								<path style="fill:#3E466D;" d="M334.22,448.296c0,0,11.077,6.418,33.003-2.231c18.707-7.04,25.557-8.448,25.557-8.448
									l-3.105-11.667C382.108,428.765,352.31,425.986,334.22,448.296z"/>
							</g>
						</g>
						<g>
							<g>
								<path style="fill:#FFBEAC;" d="M369.491,337.148c0,0,0.448,6.891,0.505,7.856c1.786,2.014,4.715,2.914,4.715,2.914
									s4.494-2.681,6.096-6.613c-0.412-3.601-1.292-9.931-1.08-11.338C376.745,333.233,369.491,337.148,369.491,337.148z"/>
								<g>
									<path style="fill:#FFBEAC;" d="M367.284,320.494c0,0-5.027,9.135-3.025,17.232c1.119,1.927,10.06,3.765,13.992-2.273
										c2.486,0.821,3.236-3.767,3.275-5.016c0.039-1.249-2.232-0.644-2.805,0.435c0.672-5.018,1.727-8.818,0.088-9.703
										S368.125,318.743,367.284,320.494z"/>
									<path style="fill:#323759;" d="M367.408,312.849c1.292,0.876,4.186,2.26,4.524,2.331c-1.015-0.703-1.258-2.411-0.572-2.499
										c0.687-0.088,1.771,1.103,3.945,1.989c2.174,0.886,10.506-1.059,10.027,3.509c2.01,0.489,3.92,2.745,2.791,6.585
										c0,0.004,0.002,0.008,0.002,0.012c-0.002,2.793-3.833,11.057-5.581,12.471c-2.595,2.099-5.748,0.11-6.707-0.405
										c-0.958-0.515-1.668-1.759-1.072-3.987s0.806-5.331-0.501-5.257c-1.306,0.074-2.16,2.782-2.16,2.782s0,0-0.85-0.222
										c0.375-1.147,0.278-2.603-0.368-4.612c-0.646-2.01-0.709-4.125-0.709-4.125c0.06-0.036,0.132-0.067,0.202-0.1
										c-1.53-0.534-2.914-1.348-3.674-2.588C364.331,314.859,366.115,311.974,367.408,312.849z"/>
								</g>
							</g>
							<g>
								<g>
									<path style="fill:#F2F2F2;" d="M382.618,341.82c0,0-0.717-2.646-1.05-2.958c-0.333-0.312-4.359-2.101-12.079,0.816
										c-1.129,0.522-1.449,3.53-1.449,3.53L382.618,341.82z"/>
									<path style="fill:#00D2C5;" d="M395.191,342.47c0,0-10.015,0.233-12.611-1.324c-2.596-1.557-11.435-0.562-13.698,0.299
										c-2.836,1.079-15.563,3.647-16.074,3.696c-1.247,7.206,0.158,15.19,1.775,18.644s9.736,18.422,9.29,22.759
										s-7.167,18.311-7.596,19.211c7.67,8.375,30.115,6.957,44.036,3.398c0.299-11.983-2.196-15.86-2.196-23.564
										c0-7.991,0.165-13.691,0-17.299C397.525,355.339,395.191,342.47,395.191,342.47z"/>
								</g>
								<path style="fill:#FFBEAC;" d="M322.477,342.057c0,0-1.995-3.339-1.626-4.523c0.369-1.184,0.84-4.463,0.722-5.336
									c-0.118-0.873-0.429-3.744-1.043-4.957c-0.225-0.444-1.765,1.184-1.15,3.268c0.377,1.276-0.063,1.581-0.153,1.523
									c-0.09-0.058,1.073-1.052-0.52-3.405c-0.224-0.442-1.92-0.461-2.1,0.302c-0.057,0.241-0.408-0.08-0.408-0.08
									c-1.078-0.269-2.015,0.39-1.989,0.834c-1.126-0.245-1.63,0.453-1.656,0.977c-0.904-0.186-1.474,0.875-1.457,1.608
									c0.016,0.664-0.148,2.848,3.251,5.869c1.948,1.12,3.1,5.121,3.1,5.121L322.477,342.057z"/>
								<polygon style="fill:#F2F2F2;" points="322.477,340.534 321.497,338.548 315.436,341.214 316.542,343.257 								"/>
								<path style="fill:#00D2C5;" d="M352.808,345.14c0,0-16.709,16.685-18.574,14.276c-1.865-2.408-11.446-19.845-11.446-19.845
									s-7.137,2.911-7.663,3.45c3.319,11.785,9.04,28.239,11.768,29.821c9.075,5.264,28.028-5.983,29.503-7.953
									C357.416,360.27,357.735,349.376,352.808,345.14z"/>
							</g>
						</g>
					</g>
					<g>
						<path style="fill:#FFBEAC;" d="M400.672,319.694c0,0-1.513-3.584-2.686-3.986c-1.173-0.402-4.096-1.962-4.73-2.573
							c-0.634-0.611-2.765-2.56-3.381-3.773c-0.225-0.444,1.999-0.723,3.316,1.005c0.806,1.058,1.312,0.884,1.318,0.777
							c0.006-0.107-1.483,0.243-2.439-2.433c-0.223-0.442,0.764-1.821,1.485-1.515c0.228,0.097,0.177-0.376,0.177-0.376
							c0.421-1.028,1.507-1.394,1.849-1.111c0.468-1.053,1.33-1.047,1.767-0.758c0.384-0.839,1.577-0.671,2.158-0.223
							c0.526,0.405,2.385,1.565,2.811,6.092c-0.249,2.233,2.296,5.529,2.296,5.529L400.672,319.694z"/>
						<polygon style="fill:#F2F2F2;" points="399.764,318.547 398.469,316.734 404.204,313.423 405.317,315.314 						"/>
						<path style="fill:#00D2C5;" d="M394.278,342.47l14.985-5.838l-10.233-18.26l6.528-3.853c0,0,14.13,16.026,15.473,25.811
							c-1.061,8.779-20.932,18.485-21.831,19.239c-0.899,0.754-1.349,2.061-1.678,4.274
							C396.189,361.026,394.278,342.47,394.278,342.47z"/>
					</g>
				</g>
			</g>
		</g>
	</g>
</g>
</svg>
